# xmcd
#
# Track frame offsets: 
#        150
#        11259
#        21724
#        33257
#        43687
#        55087
#        66376
#        77898
#        90351
#        102199
#        114976
#        126668
#        138594
#        150317
#        162693
#        173199
#        186561
#        198974
#        209336
#        220676
#        231731
#        243589
#
# Disc length: 3375 seconds
#
# Revision: 2
# Processed by: cddbd v1.5.1PL0 Copyright (c) Steve Scherf et al.
# Submitted via: ExactAudioCopy v0.95a5
#
DISCID=410d2d16
DTITLE=Sonny James - Young Love - The Complete Recordings 1952-1962 (C
DTITLE=D 1)
DYEAR=2002
DGENRE=Country
TTITLE0=It's So Nice To Make Up 
TTITLE1=Believe Another's Lips 
TTITLE2=I Wish 
TTITLE3=Shortcut 
TTITLE4=That's Me Without You 
TTITLE5=Cold, Cold, Colder 
TTITLE6=Somebody Else's Heartache 
TTITLE7=The One I Can't Forget 
TTITLE8=I've Always Wanted You 
TTITLE9=I Forgot More Than You'll Ever Know 
TTITLE10=Poor Boy, Rich Lovin' 
TTITLE11=Won't Somebody Tell Me 
TTITLE12=My Greatest Thrill 
TTITLE13=The Table Next To Mine 
TTITLE14=That's How I Need You 
TTITLE15=This Kiss Must Last Forever 
TTITLE16=She Done Give Her Heart To Me 
TTITLE17=Oceans Of Tears (I've Shed For You) 
TTITLE18='Til The Last Leaf Shall Fall 
TTITLE19=You Don't Have To Walk Alone 
TTITLE20=Christmas In My Hometown 
TTITLE21=I Forgot To Remember Santa Claus 
EXTD=
EXTT0=
EXTT1=
EXTT2=
EXTT3=
EXTT4=
EXTT5=
EXTT6=
EXTT7=
EXTT8=
EXTT9=
EXTT10=
EXTT11=
EXTT12=
EXTT13=
EXTT14=
EXTT15=
EXTT16=
EXTT17=
EXTT18=
EXTT19=
EXTT20=
EXTT21=
PLAYORDER=
